<svg version="1.1" id="Layer_1" xmlns="http://www.w3.org/2000/svg" x="0" y="0" viewBox="0 0 1920 1080" style="enable-background:new 0 0 1920 1080" xml:space="preserve"><path style="fill:#6200f5" d="M1437.546 209.35h14.75c43.695.001 87.392.243 131.082-.19 9.289-.092 12.244 2.55 12.041 11.99-.59 27.499-.209 55.019-.209 82.53v10.631c-4.57.231-8.314.581-12.058.584-44.666.039-89.334.289-133.995-.184-9.541-.101-12.084 2.912-11.812 12.122.631 21.343.638 42.731-.003 64.074-.276 9.172 2.18 12.128 11.721 12.054 55.991-.437 111.986-.214 167.98-.214h12.144v105.58h-316.578V26.636h308.778V132h-11.689c-53.081 0-106.162-.004-159.242.003-12.896.002-12.904.017-12.908 13.348-.007 20.678-.002 41.356-.002 63.999zM625.84 322.058c4.298-2.812 7.758-5.102 11.244-7.352 31.026-20.031 50.809-48.105 60.46-83.66 5.932-21.85 7.006-44.138 5.336-66.403-4.354-58.033-31.824-99.951-87.214-121.716-30.222-11.875-61.88-16.341-93.953-16.704-61.161-.692-122.337-.208-183.506-.178-2.816.001-5.631.34-8.698.538v481.368h125.04v-12.352c0-46.281.215-92.565-.19-138.843-.076-8.648 2.533-11.485 11.022-10.897 9.341.646 18.799.667 28.136-.01 8.316-.604 12.611 2.577 16.375 10.017 24.652 48.731 49.94 97.139 74.694 145.819 2.781 5.469 5.91 7.297 11.867 7.175 18.117-.371 36.246-.134 54.37-.134h79.212L625.84 322.058zm-74.418-86.465c-16.019 9.21-33.791 10.475-51.562 11.309-11.951.561-23.96-.198-35.921.232-7.089.255-9.73-2.028-9.533-9.392.115-4.286.181-8.573.217-12.861.106-12.864-.07-25.736-.07-38.603.006-13.11-.107-26.222.016-39.329.041-4.369.108-8.737.214-13.105.062-2.564 3.153-7.281 4.763-7.247 25.815.541 51.9-.318 77.345 3.256 26.796 3.763 39.304 18.563 42.444 42.198 3.657 27.526-6.932 51.479-27.913 63.542zM1216.532 191.606c-9.97-49.242-31.719-92.277-70.613-125.17-41.977-35.499-91.553-49.145-145.762-49.436-12.56.957-25.208 1.274-37.666 2.975-76.498 10.446-133.347 49.298-163.085 121.085-34.306 82.814-33.117 167.381.322 250.348 22.13 54.907 62.528 92.856 118.669 112.903 37.902 13.534 77.145 16.016 116.722 10.581 85.737-11.773 142.847-59.555 171.578-140.599 21.157-59.676 22.32-121.019 9.835-182.687zm-143.908 171.719c-27.02 47.968-84.543 59.962-124.55 26.094-14.453-12.235-24.074-27.952-29.988-45.684-16.978-50.909-17.925-102.277-.901-153.224 10.626-31.801 30.608-55.779 65.474-62.288 41.679-7.78 75.964 10.518 94.478 49.057 13.477 28.055 16.553 58.148 17.375 88.791-1.147 33.748-4.877 67.056-21.888 97.254zM1611.273 580.501c-419.909-.008-839.818-.008-1259.727 0-22.961 0-28.135 5.144-28.136 27.819-.004 138.891-.004 277.781 0 416.672 0 22.156 5.497 27.715 27.396 27.715 210.117.002 420.233.001 630.349.001 210.116 0 420.233.001 630.349-.001 22.063 0 27.606-5.51 27.606-27.478.005-138.891.004-277.781 0-416.672.001-22.909-5.079-28.056-27.837-28.056zM606.806 764.982c-11.703 0-22.955.438-34.154-.14-8.763-.453-11.86 2.5-11.761 11.529.413 37.543.17 75.094.168 112.642v12.686h-48.233v-11.705c0-38.196-.208-76.393.167-114.585.078-7.971-2.121-10.967-10.304-10.57-11.842.574-23.733.147-36.024.147v-40.308h140.141v40.304zm172.218 136.504H732.65v-68.627h-51.868v68.645h-46.837V725.048h46.372v64.74h51.528v-64.761h47.179v176.459zm155.648.555H818.608V724.206h113.763v40.772h-20.767c-12.303.003-24.614.271-36.906-.093-6.884-.204-10.332 1.681-9.479 9.271.568 5.049.108 10.214.108 16.716 16.279 0 31.719.389 47.126-.157 8.221-.292 12.001 1.791 11.135 10.747-.927 9.59 2.895 23.307-2.087 27.866-5.655 5.174-18.767 2.384-28.648 2.697-8.695.276-17.406.058-27.472.058 0 8.618-.567 16.641.397 24.475.243 1.971 5.351 4.676 8.29 4.761 16.175.471 32.37.233 48.558.238h12.047l-.001 40.484zm228.316-54.207c-9.891 33.022-33.839 50.137-66.645 53.377-23.607 2.332-47.63.454-72.103.454V722.641c29.122 1.852 57.993 1.386 85.996 6.092 30.112 5.06 48.068 25.861 54.661 55.948 4.652 21.234 4.326 42.337-1.909 63.153zm150.625 54.414h-116.389V724.321h114.169v40.657c-16.103 0-31.88-.171-47.653.041-23.268.312-19.161-3.361-19.558 20.272-.021 1.269.215 2.542.494 5.58 13.391 0 26.829-.061 40.267.014 19.966.111 17.194-1.772 17.299 16.855.137 24.343.035 24.344-24.23 24.344h-33.333c-1.992 29.473-1.991 29.435 25.178 29.489 13.593.027 27.185.202 40.777.381.885.012 1.763.627 2.978 1.088l.001 39.206zm172.464-170.81c-16.206 54.106-32.586 108.16-48.611 162.32-1.876 6.34-4.5 8.86-11.362 8.584-14.217-.572-28.486.131-42.703-.435-2.827-.113-7.277-3.043-8.017-5.549-16.373-55.403-32.338-110.927-48.312-166.447-.41-1.426-.052-3.073-.052-5.523 15.08 0 29.913-.323 44.702.333 2.334.104 5.821 4.317 6.494 7.168 8.599 36.437 16.77 72.976 25.093 109.478.789 3.458 1.874 6.849 2.822 10.271l1.557-.467c9.305-38.568 18.848-77.08 27.723-115.746 1.908-8.31 4.803-11.97 13.933-11.287 12.181.911 24.481.225 37.51.225-.297 2.891-.183 5.089-.777 7.075z"/><path style="fill:#6200f5" d="M1071.653 861.709v-96.321c20.288-4.998 37.604 4.417 43.491 23.798 4.921 16.202 4.568 32.645-.476 48.697-5.67 18.045-21.814 26.87-43.015 23.826z"/></svg>